<svg width="470" height="137" viewBox="0 0 470 137" fill="none" xmlns="http://www.w3.org/2000/svg">
<path d="M208.494 59.6826V56.5415C208.395 51.6578 207.278 46.8484 205.217 42.4202C203.155 37.992 200.192 34.0423 196.518 30.8232L195.536 32.5901C195.321 33.0118 195.193 33.4723 195.159 33.9445C195.126 34.4166 195.187 34.8907 195.34 35.3387C195.929 36.5166 207.512 44.7621 208.494 59.6826Z" fill="white"/>
<path d="M278.191 87.7563C276.424 91.6828 273.872 96.3945 270.338 95.0203C266.804 93.646 255.221 92.2717 241.871 101.106C240.717 101.954 239.366 102.495 237.945 102.677H237.748C236.396 102.464 235.116 101.925 234.018 101.106C220.668 92.2717 209.085 93.8423 205.355 95.0203C201.625 96.1982 199.465 91.6828 197.699 87.7563C197.585 87.6556 197.515 87.515 197.502 87.3637C196.913 87.9526 196.521 89.1306 197.502 91.4865C198.484 93.8423 201.821 99.9283 205.355 98.7504C208.889 97.5724 220.668 96.0019 234.018 104.444C235.162 105.179 236.424 105.71 237.748 106.014H237.945C239.339 105.736 240.67 105.204 241.871 104.444C255.221 96.0019 266.804 97.5724 270.534 98.7504C274.264 99.9283 276.424 95.2166 278.191 91.4865C279.958 87.7563 278.78 87.9526 278.387 87.3637C277.994 86.7747 278.191 87.56 278.191 87.7563Z" fill="white"/>
<path d="M279.169 30.8232C276.028 33.9644 267.194 42.6026 267.194 56.5415C267.161 57.5924 267.227 58.644 267.39 59.6826C268.175 44.7621 279.758 36.5166 280.347 35.3387C280.5 34.8907 280.562 34.4166 280.528 33.9445C280.494 33.4723 280.366 33.0118 280.151 32.5901L279.169 30.8232Z" fill="white"/>
<path d="M209.477 54.3813C209.482 64.1767 205.843 73.6236 199.268 80.8849C199.268 80.8849 197.305 81.6702 198.876 85.5966C200.446 89.5231 202.998 94.2348 206.336 93.0569C209.673 91.8789 221.256 90.112 234.017 98.9465C235.136 99.7699 236.402 100.37 237.747 100.713H237.944C239.307 100.42 240.584 99.8156 241.674 98.9465C254.631 90.112 265.822 91.8789 269.355 93.0569C272.889 94.2348 275.245 89.5231 276.816 85.5966C278.386 81.6702 276.423 80.8849 276.423 80.8849C269.849 73.6236 266.21 64.1767 266.214 54.3813C266.214 37.8902 278.386 28.6631 278.975 27.4851C279.128 27.0372 279.19 26.5631 279.156 26.091C279.122 25.6188 278.994 25.1583 278.779 24.7366L273.478 14.5279C272.497 12.9573 268.177 13.7426 268.177 13.7426C256.791 13.7426 251.686 4.90806 250.312 2.74851C249.887 2.04075 249.318 1.4303 248.641 0.956794C247.965 0.483289 247.196 0.157306 246.386 0L229.306 0C228.53 0.182145 227.8 0.519628 227.159 0.992043C226.518 1.46446 225.979 2.06199 225.575 2.74851C224.005 4.90806 219.097 13.7426 207.71 13.7426C207.71 13.7426 203.195 12.9573 202.213 14.5279L196.912 24.7366C196.581 25.6229 196.581 26.5989 196.912 27.4851C197.305 28.6631 209.477 37.8902 209.477 54.3813ZM237.944 7.46026C239.992 7.51148 241.94 8.3614 243.37 9.82859C244.801 11.2958 245.601 13.264 245.6 15.3132C245.306 17.158 244.363 18.8374 242.942 20.0498C241.521 21.2623 239.714 21.9283 237.846 21.9283C235.977 21.9283 234.17 21.2623 232.749 20.0498C231.328 18.8374 230.385 17.158 230.091 15.3132C230.091 13.2304 230.918 11.233 232.391 9.76032C233.864 8.28761 235.861 7.46026 237.944 7.46026Z" fill="white"/>
<path d="M237.94 13.1538C239.002 13.1538 240.036 13.4983 240.885 14.1354C241.735 14.7726 242.355 15.6681 242.652 16.6876C242.814 16.1807 242.88 15.6482 242.848 15.117C242.848 13.8153 242.331 12.567 241.411 11.6465C240.49 10.7261 239.242 10.209 237.94 10.209C236.62 10.208 235.35 10.7188 234.399 11.634C233.447 12.5492 232.887 13.7976 232.836 15.117C232.836 15.706 233.032 16.0987 233.032 16.6876C233.338 15.6351 233.988 14.7154 234.877 14.0749C235.767 13.4345 236.845 13.1102 237.94 13.1538Z" fill="white"/>
<path d="M469.211 10.6007C468.768 9.76396 468.084 9.07984 467.247 8.63747C466.457 8.13007 465.537 7.86035 464.597 7.86035C463.658 7.86035 462.738 8.13007 461.947 8.63747C461.057 9.07691 460.309 9.7571 459.787 10.6007C459.346 11.4558 459.079 12.3901 459.002 13.3492C459.056 14.3124 459.324 15.2514 459.787 16.0977C460.23 16.9345 460.914 17.6186 461.75 18.0609C462.568 18.5896 463.525 18.863 464.499 18.8462C465.476 18.889 466.441 18.6135 467.247 18.0609C467.696 17.8938 468.104 17.6319 468.443 17.2932C468.782 16.9544 469.044 16.5467 469.211 16.0977C469.763 15.2908 470.039 14.3262 469.996 13.3492C470.013 12.3754 469.739 11.4187 469.211 10.6007ZM468.818 15.9014C468.437 16.6671 467.817 17.2875 467.051 17.6683C466.318 18.2202 465.415 18.498 464.499 18.4536C463.647 18.4686 462.816 18.1915 462.143 17.6683C461.32 17.2988 460.634 16.6809 460.18 15.9014C459.781 15.1106 459.579 14.235 459.591 13.3492C459.622 12.4686 459.822 11.6021 460.18 10.797C460.681 10.0572 461.355 9.45078 462.143 9.03011C462.872 8.65413 463.679 8.45252 464.499 8.44115C465.385 8.42896 466.26 8.63102 467.051 9.03011C467.817 9.41096 468.437 10.0314 468.818 10.797C469.32 11.5542 469.593 12.4406 469.603 13.3492C469.648 14.2656 469.37 15.1685 468.818 15.9014Z" fill="white"/>
<path d="M466.657 15.7057L465.087 13.5461L466.461 12.7609C466.701 12.4889 466.84 12.142 466.853 11.7792C466.884 11.5466 466.844 11.3101 466.739 11.1003C466.634 10.8904 466.469 10.7167 466.264 10.6013C466.025 10.3882 465.745 10.2261 465.442 10.1248C465.138 10.0235 464.817 9.98527 464.498 10.0123H461.553V10.405H461.945C461.997 10.405 462.047 10.4257 462.084 10.4625C462.121 10.4993 462.142 10.5492 462.142 10.6013V16.0983C462.142 16.2947 462.142 16.2947 461.945 16.2947H463.516V13.5461H464.105L466.461 16.6873H467.442L466.853 16.0983M463.32 13.3498V10.405H463.909L465.087 10.7976C465.479 10.994 465.479 11.3866 465.479 11.7792C465.479 12.1719 465.479 12.3682 465.283 12.5645L464.694 13.1535H463.32" fill="white"/>
<path d="M28.2704 63.4116C27.9924 63.4091 27.7186 63.4805 27.4772 63.6185C27.2357 63.7564 27.0352 63.956 26.8962 64.1969C26.3072 67.1417 26.3072 67.338 18.258 67.338H15.1168C13.1536 67.338 12.5646 67.338 12.5646 60.4667V26.1103C12.5646 22.3802 12.5646 19.828 13.1536 18.8464C13.7426 17.8648 14.5279 17.8648 17.0801 17.6684C19.6322 17.4721 18.0617 16.8831 18.0617 16.2942C18.066 16.0198 17.9983 15.749 17.8653 15.5089C17.6126 15.2091 17.2672 15.0019 16.8837 14.9199H16.6874L10.0124 15.3126L1.96323 15.1162H1.7669C1.53695 15.108 1.3086 15.1575 1.10279 15.2604C0.89698 15.3633 0.720304 15.5163 0.588968 15.7052V16.2942C0.588968 17.0795 0.981613 17.6684 1.57058 17.6684H1.7669C4.31909 18.0611 5.10438 18.2574 5.49703 18.8464C6.03716 21.2275 6.23547 23.6733 6.086 26.1103V60.4667C6.086 64.1969 6.086 66.5527 5.49703 67.5344C4.90806 68.516 4.12277 68.3196 1.57058 68.7123H0.981613C0.196322 68.9086 0 69.8902 0 70.4792C0.0468425 70.7565 0.191344 71.0079 0.407383 71.1879C0.623423 71.3679 0.896743 71.4647 1.17794 71.4608H1.37426L17.2764 71.0682H26.5035C27.4851 71.0682 28.2704 70.8718 28.8594 69.3013C29.4484 67.7307 29.4484 65.5711 29.6447 64.5895V64.1969L29.2521 63.8042C29.1367 63.5999 28.963 63.4347 28.7531 63.3297C28.5432 63.2248 28.3068 63.1849 28.0741 63.2153" fill="white"/>
<path d="M63.2149 62.8227C63.032 62.8071 62.848 62.8345 62.6776 62.9027C62.5071 62.9709 62.355 63.0779 62.2333 63.2154H62.0369C61.2517 66.5528 61.2517 67.1418 53.0061 67.1418H50.0613C48.2944 67.1418 47.5091 67.1418 47.5091 59.8779V52.8103H52.4171C56.9326 52.8103 56.9326 53.2029 57.3252 54.5772C57.7179 55.9514 57.5215 55.1661 58.1105 55.3625H58.6995C59.1533 55.3253 59.5753 55.1143 59.8774 54.7735V52.025C59.8995 50.9024 60.031 49.7846 60.27 48.6875V48.2948L59.8774 47.9022C59.7959 47.7137 59.6574 47.5555 59.4813 47.4498C59.3052 47.3442 59.1005 47.2964 58.8958 47.3132C57.9142 47.3132 57.7179 47.5096 57.5215 47.7059H57.3252V48.0985C57.1978 48.2684 57.1289 48.4751 57.1289 48.6875C56.9326 48.8838 55.951 49.0801 52.2208 49.0801H47.5091V42.9941C47.4336 40.7018 47.4992 38.4071 47.7054 36.1228H52.2208C59.8774 36.1228 59.8774 37.1045 60.27 38.675C60.6627 40.2456 60.6627 39.4603 61.2517 39.6567H61.6443C62.6259 39.6567 63.0186 39.0677 63.0186 38.4787C63.0186 38.0861 62.8222 36.9081 62.8222 36.3192C62.8273 35.3894 62.9594 34.4647 63.2149 33.5707L63.6075 32.1964H62.0369L51.2392 32.589L36.1224 32.1964C35.8897 32.1661 35.6533 32.2059 35.4434 32.3109C35.2335 32.4158 35.0598 32.581 34.9444 32.7854C34.9444 32.9817 34.7481 33.178 34.7481 33.5707C34.7447 33.9035 34.8622 34.2263 35.0789 34.4791C35.2955 34.7319 35.5966 34.8974 35.9261 34.9449H36.515C38.8709 35.3376 39.8525 35.5339 40.2451 36.1228C40.6378 36.7118 40.8341 39.264 40.8341 43.1905V60.4668C40.8341 64.3933 40.8341 66.5528 40.2451 67.5344C39.6562 68.5161 38.8709 68.3197 36.3187 68.7124H35.5334C35.2804 68.9228 35.0913 69.1997 34.9872 69.5119C34.8832 69.8241 34.8683 70.1591 34.9444 70.4793C34.9913 70.7566 35.1358 71.008 35.3518 71.188C35.5679 71.368 35.8412 71.4648 36.1224 71.4609L51.4355 71.0683H61.2517C61.5244 71.1248 61.806 71.1227 62.0779 71.0621C62.3497 71.0014 62.6056 70.8837 62.8284 70.7165C63.0512 70.5494 63.2359 70.3368 63.3703 70.0928C63.5046 69.8488 63.5855 69.579 63.6075 69.3013C64.1141 67.5617 64.5075 65.7911 64.7855 64.0006C64.7855 63.608 64.3928 62.8227 63.2149 62.8227Z" fill="white"/>
<path d="M88.7368 32.3928H80.0986L70.8714 32.0001H70.6751C70.4424 31.9698 70.206 32.0097 69.9961 32.1146C69.7863 32.2195 69.6125 32.3847 69.4972 32.5891C69.4972 32.7854 69.3009 32.9817 69.3009 33.3744C69.2974 33.7072 69.415 34.0301 69.6316 34.2828C69.8483 34.5356 70.1493 34.7011 70.4788 34.7486H70.6751C72.8347 34.9449 73.8163 35.1413 74.2089 35.9266C74.9469 38.2049 75.2141 40.6094 74.9942 42.9942V60.2705C75.2088 62.7199 74.942 65.1876 74.2089 67.5345C73.8163 68.1235 72.8347 68.3198 70.6751 68.5161H70.0861C69.8332 68.7266 69.644 69.0035 69.54 69.3156C69.4359 69.6278 69.4211 69.9628 69.4972 70.283C69.544 70.5603 69.6885 70.8117 69.9046 70.9917C70.1206 71.1717 70.3939 71.2685 70.6751 71.2646L79.7059 70.872H87.9515C100.32 70.872 109.547 62.2338 109.547 50.8471C109.547 39.4604 101.498 32.0001 88.7368 32.0001M89.5221 67.5345C81.4728 67.5345 81.4728 66.9455 81.4728 62.0375V43.1905C81.4397 40.7631 81.5709 38.3362 81.8655 35.9266H86.9699C97.375 35.9266 102.872 42.2089 102.872 53.3993C102.872 64.5896 97.5713 68.1234 89.5221 68.1234" fill="white"/>
<path d="M139.193 62.823C139.01 62.8074 138.826 62.8348 138.656 62.903C138.486 62.9712 138.333 63.0782 138.212 63.2156H138.015C137.426 66.5531 137.23 67.1421 128.985 67.1421H126.04C124.273 67.1421 123.488 67.1421 123.488 59.8781V52.8105H128.396C132.911 52.8105 133.107 53.2032 133.304 54.5774C133.5 55.9517 133.696 55.1664 134.285 55.3627H134.678C135.132 55.3255 135.554 55.1145 135.856 54.7738V53.9885C135.693 53.2808 135.627 52.5543 135.66 51.8289C135.682 50.7063 135.813 49.5885 136.052 48.4914V48.0988L135.66 47.7061C135.578 47.5176 135.44 47.3594 135.263 47.2538C135.087 47.1481 134.883 47.1003 134.678 47.1172C133.893 47.1172 133.5 47.3135 133.5 47.5098V47.9025C133.466 48.108 133.4 48.3068 133.304 48.4914C133.107 48.6878 132.126 48.8841 128.396 48.8841H123.488V42.9944C123.412 40.7021 123.478 38.4074 123.684 36.1231H128.199C135.856 36.1231 136.052 37.1047 136.249 38.6753C136.326 38.9032 136.455 39.1103 136.625 39.2805C136.795 39.4507 137.002 39.5795 137.23 39.6569H137.623C138.604 39.6569 138.997 39.068 138.997 38.479V36.3194C138.949 35.3987 139.015 34.4755 139.193 33.5709L139.586 32.1967H138.212L127.218 32.5893L112.297 32.1967H112.101C111.896 32.1798 111.691 32.2276 111.515 32.3332C111.339 32.4389 111.201 32.5971 111.119 32.7856C110.923 32.982 110.923 33.1783 110.923 33.5709C110.923 33.9636 111.316 34.9452 111.905 34.9452H112.493C114.849 35.3378 115.831 35.5342 116.42 36.1231C116.857 38.4519 116.989 40.8278 116.813 43.1907V60.4671C116.813 64.3936 116.813 66.5531 116.224 67.5347C115.635 68.5163 114.849 68.32 112.297 68.7127H111.512C111.259 68.9231 111.07 69.2 110.966 69.5122C110.862 69.8244 110.847 70.1594 110.923 70.4796C110.97 70.7568 111.114 71.0082 111.33 71.1883C111.546 71.3683 111.82 71.4651 112.101 71.4612H112.297L127.61 71.0685H137.23C137.503 71.1251 137.784 71.123 138.056 71.0624C138.328 71.0017 138.584 70.8839 138.807 70.7168C139.03 70.5497 139.214 70.3371 139.349 70.0931C139.483 69.8491 139.564 69.5793 139.586 69.3016C140.093 67.562 140.486 65.7914 140.764 64.0009C140.764 63.6083 140.371 62.823 139.193 62.823Z" fill="white"/>
<path d="M185.328 69.4995C179.635 69.4995 171.585 60.4687 168.444 52.6158C170.589 51.7169 172.432 50.2221 173.754 48.3085C175.076 46.3949 175.823 44.1425 175.904 41.818C175.904 35.732 170.211 32.1982 160.199 32.1982C150.186 32.1982 148.027 32.3946 146.063 33.1799C144.1 33.9651 145.082 33.9651 145.278 34.7504C145.325 35.0277 145.47 35.2791 145.686 35.4591C145.902 35.6392 146.175 35.736 146.456 35.732H148.616C150.579 35.732 150.972 36.321 150.972 43.3886V60.665C150.972 64.3951 150.972 66.9473 150.383 67.9289C149.794 68.9105 149.008 68.7142 146.652 68.9105H146.063C145.811 69.121 145.621 69.3979 145.517 69.7101C145.413 70.0223 145.398 70.3573 145.475 70.6775C145.521 70.9547 145.666 71.2061 145.882 71.3862C146.098 71.5662 146.371 71.663 146.652 71.6591H146.849L154.898 71.2664L161.573 71.6591H161.769C162.05 71.663 162.324 71.5662 162.54 71.3862C162.756 71.2061 162.9 70.9547 162.947 70.6775C163.023 70.3573 163.008 70.0223 162.904 69.7101C162.8 69.3979 162.611 69.121 162.358 68.9105H161.966C159.413 68.7142 158.432 68.5179 158.039 67.7326C157.647 66.9473 157.45 64.3951 157.45 60.665V54.7753H162.555C164.518 60.8613 170.015 72.6407 185.328 72.6407C185.533 72.6575 185.737 72.6098 185.914 72.5041C186.09 72.3984 186.228 72.2402 186.31 72.0517C186.381 71.972 186.435 71.8787 186.468 71.7775C186.502 71.6762 186.515 71.5691 186.506 71.4627C186.506 70.4811 185.917 69.8922 185.328 69.8922M158.824 51.4378H157.45V42.6033C157.382 40.2406 157.513 37.8764 157.843 35.5357H159.61C166.088 35.5357 169.23 38.4806 169.23 44.5666C169.23 47.5114 168.052 51.6342 158.824 51.6342" fill="white"/>
<path d="M329.821 36.1231C330.214 35.3378 331.392 35.1415 334.14 34.9452C334.47 34.8976 334.771 34.7321 334.988 34.4794C335.204 34.2266 335.322 33.9038 335.318 33.5709C335.318 33.1783 335.318 32.982 335.122 32.7856C335.041 32.5971 334.902 32.4389 334.726 32.3332C334.55 32.2276 334.345 32.1798 334.14 32.1967H333.944L326.68 32.5893C324.121 32.6757 321.56 32.5444 319.024 32.1967H318.827C318.623 32.1798 318.418 32.2276 318.242 32.3332C318.066 32.4389 317.927 32.5971 317.846 32.7856C317.649 32.982 317.649 33.1783 317.649 33.5709C317.649 33.9636 318.042 34.9452 318.827 34.9452C322.754 35.3378 322.754 35.3378 322.754 43.1907V49.8657H303.318V43.1907C303.318 35.3378 303.318 35.3378 307.244 34.9452C307.833 34.9452 308.226 34.1599 308.226 33.5709C308.226 32.982 308.226 32.982 308.03 32.7856C307.948 32.5971 307.81 32.4389 307.633 32.3332C307.457 32.2276 307.253 32.1798 307.048 32.1967H306.852L300.569 32.5893C297.749 32.6842 294.926 32.5529 292.127 32.1967H291.931C291.726 32.1798 291.522 32.2276 291.346 32.3332C291.169 32.4389 291.031 32.5971 290.949 32.7856C290.753 32.982 290.753 33.1783 290.753 33.5709C290.753 33.9636 291.146 34.9452 291.735 34.9452H292.324C294.876 35.3378 295.858 35.5342 296.25 36.1231C296.677 38.4532 296.809 40.8277 296.643 43.1907V60.4671C296.809 62.8301 296.677 65.2046 296.25 67.5347C295.858 68.32 294.68 68.32 292.324 68.7127H291.538C291.201 68.8443 290.93 69.1038 290.782 69.4346C290.635 69.7655 290.625 70.141 290.753 70.4796C290.8 70.7568 290.945 71.0082 291.161 71.1883C291.377 71.3683 291.65 71.4651 291.931 71.4612H292.127L300.569 71.0685L306.852 71.4612H307.048C307.329 71.4651 307.602 71.3683 307.818 71.1883C308.035 71.0082 308.179 70.7568 308.226 70.4796C308.302 70.1594 308.287 69.8244 308.183 69.5122C308.079 69.2 307.89 68.9231 307.637 68.7127H307.244C303.318 68.32 303.318 68.32 303.318 60.4671V53.2032H322.754V60.4671C322.754 68.32 322.754 68.32 318.827 68.7127H318.631C317.846 68.909 317.649 69.8906 317.649 70.4796C317.696 70.7568 317.841 71.0082 318.057 71.1883C318.273 71.3683 318.546 71.4651 318.827 71.4612H319.024L326.68 71.0685L333.944 71.4612H334.14C334.422 71.4651 334.695 71.3683 334.911 71.1883C335.127 71.0082 335.272 70.7568 335.318 70.4796C335.318 69.8906 335.122 68.909 334.337 68.7127H334.14C331.392 68.5163 330.214 68.32 329.821 67.5347C329.429 66.7494 329.232 64.5899 329.232 60.8598V42.7981C329.232 39.068 329.232 36.9084 329.821 36.1231Z" fill="white"/>
<path d="M421.307 32.1967H421.111L415.417 32.5893C413.12 32.6786 410.819 32.5471 408.546 32.1967H408.35C408.145 32.1798 407.94 32.2276 407.764 32.3332C407.588 32.4389 407.45 32.5971 407.368 32.7856C407.212 33.016 407.142 33.2942 407.172 33.5709C407.172 34.3562 407.564 34.9452 408.35 34.9452C412.472 35.3378 412.865 35.5341 412.865 42.7981V56.5407C412.865 64.0009 409.331 67.731 402.264 67.731C396.767 67.731 391.073 64.0009 391.073 55.559V43.1907C391.073 39.4606 391.073 37.1047 391.662 36.1231C392.251 35.1415 393.037 35.1415 395.589 34.9452C398.141 34.7489 396.57 34.1599 396.57 33.5709C396.57 32.982 396.57 32.982 396.374 32.7856C396.293 32.5971 396.154 32.4389 395.978 32.3332C395.802 32.2276 395.597 32.1798 395.392 32.1967H395.196L388.521 32.5893C385.832 32.6857 383.139 32.5543 380.472 32.1967H380.276C380.046 32.1884 379.817 32.238 379.611 32.3409C379.406 32.4438 379.229 32.5967 379.098 32.7856V33.5709C379.098 34.3562 379.49 34.9452 380.079 34.9452H380.276C382.828 35.3378 383.613 35.3378 384.006 36.1231C384.552 38.4367 384.75 40.8187 384.595 43.1907V56.737C384.595 65.7678 391.27 72.2465 400.889 72.2465C410.509 72.2465 416.595 64.5899 416.595 57.1296V42.7981C416.595 35.7305 416.792 35.3378 421.307 34.9452C421.636 34.8976 421.937 34.7321 422.154 34.4794C422.371 34.2266 422.488 33.9038 422.485 33.5709C422.514 33.2942 422.445 33.016 422.289 32.7856C422.207 32.5971 422.069 32.4389 421.893 32.3332C421.716 32.2276 421.512 32.1798 421.307 32.1967Z" fill="white"/>
<path d="M434.854 22.969C434.854 19.8278 438.977 17.8646 443.099 17.8646C447.222 17.8646 451.345 18.6499 452.523 23.7543H452.719C452.916 24.1469 453.505 24.1469 453.897 24.1469C454.29 24.1469 455.468 23.1653 455.468 22.969C455.468 16.6867 454.486 16.294 453.897 15.9014C450.644 14.6466 447.174 14.0461 443.688 14.1345C434.265 14.1345 427.983 20.0242 427.983 25.5212C427.983 31.0182 433.872 38.4785 439.566 45.5461C445.259 52.6137 450.167 58.307 450.167 62.4298C450.167 66.5526 445.455 68.3195 440.744 68.3195C436.032 68.3195 429.553 65.1783 428.964 59.485C428.964 59.0923 428.768 58.5034 427.59 58.5034C426.412 58.5034 426.019 59.485 426.019 59.485C426.003 61.063 425.872 62.6377 425.627 64.1967C425.43 66.5526 425.234 67.3379 426.019 67.9268C430.264 70.5495 435.166 71.9113 440.155 71.8533C449.382 71.8533 456.449 66.3563 456.449 59.2887C456.449 52.2211 450.363 45.9387 444.67 38.6748C438.977 31.4109 434.854 26.5028 434.854 22.5764" fill="white"/>
<path d="M380.669 68.7123H380.276C376.35 68.3196 375.368 66.9454 372.816 60.0741L362.607 32.3926C362.435 32.1999 362.223 32.0474 361.986 31.9456C361.748 31.8438 361.491 31.7954 361.233 31.8036C360.955 31.8011 360.681 31.8725 360.44 32.0105C360.198 32.1485 359.998 32.3481 359.859 32.5889L347.883 60.2704C345.135 66.749 343.761 68.7123 340.619 68.9086H340.227C339.441 69.3012 339.441 70.2828 339.441 70.6755C339.488 70.9528 339.633 71.2042 339.849 71.3842C340.065 71.5642 340.338 71.661 340.619 71.6571H346.313L351.613 72.0498H351.81C352.091 72.0537 352.364 71.9569 352.58 71.7768C352.796 71.5968 352.941 71.3454 352.988 71.0681C352.988 70.4792 352.791 69.4976 352.202 69.3012H351.81C349.061 69.1049 349.061 68.7123 349.061 68.3196C349.384 66.3493 349.979 64.4332 350.828 62.6263L353.184 57.3256H364.571L366.534 62.6263C367.323 64.4406 367.852 66.3573 368.105 68.3196C368.105 68.9086 368.105 68.9086 365.16 69.3012H364.571C363.982 69.6939 363.982 70.6755 363.982 71.0681C364.029 71.3454 364.173 71.5968 364.389 71.7768C364.605 71.9569 364.878 72.0537 365.16 72.0498H365.356L373.798 71.6571L379.884 72.0498H380.276C380.548 72.0217 380.805 71.9133 381.015 71.7385C381.225 71.5637 381.378 71.3303 381.454 71.0681C381.456 70.7348 381.387 70.405 381.251 70.1004C381.116 69.7958 380.918 69.5234 380.669 69.3012M354.558 54.1844L359.466 42.7977L363.393 54.1844H354.558Z" fill="white"/>
<path d="M95.0195 123.29C95.0195 123.486 94.8231 123.486 94.4305 123.486H84.418C84.3044 123.386 84.2341 123.245 84.2217 123.094H84.0254V125.646H84.2217C84.2127 125.54 84.2254 125.433 84.2592 125.331C84.293 125.23 84.347 125.137 84.418 125.057H89.1298V134.677C89.1298 134.873 88.9335 135.069 88.9335 135.266H88.3445V135.462H91.2893V135.069H90.7004C90.7004 134.873 90.504 134.677 90.504 134.48V124.664H94.4305C94.8231 124.664 95.0195 124.664 95.0195 124.861C95.0195 125.057 95.4121 125.057 95.4121 125.45H95.6084V122.897H95.4121C95.4121 123.002 95.3707 123.101 95.2971 123.175C95.2235 123.249 95.1236 123.29 95.0195 123.29Z" fill="white"/>
<path d="M108.959 123.684L109.548 124.076C109.619 124.156 109.673 124.249 109.706 124.35C109.74 124.452 109.753 124.559 109.744 124.665V128.592H101.695V124.665C101.686 124.559 101.698 124.452 101.732 124.35C101.766 124.249 101.82 124.156 101.891 124.076L102.48 123.684H99.5352L100.124 124.076C100.195 124.156 100.249 124.249 100.283 124.35C100.317 124.452 100.329 124.559 100.32 124.665V134.285C100.32 134.481 100.124 134.678 100.124 134.874H99.5352V135.463H102.48V135.07H101.891C101.891 134.874 101.695 134.678 101.695 134.481V129.77H109.744V134.285C109.744 134.481 109.548 134.678 109.548 134.874H108.959V135.463H111.903V135.07H111.315C111.315 134.874 111.118 134.678 111.118 134.481V124.665C111.109 124.559 111.122 124.452 111.156 124.35C111.189 124.249 111.243 124.156 111.315 124.076L111.903 123.684H108.959Z" fill="white"/>
<path d="M126.826 134.089C126.826 134.285 126.63 134.285 126.237 134.285H118.777V129.77H123.488C123.881 129.77 124.077 129.77 124.077 129.966C124.077 130.162 124.47 130.162 124.47 130.555H124.666V128.003H124.47L124.077 128.592H118.777V124.665H126.826C126.897 124.745 126.951 124.838 126.985 124.94C127.019 125.041 127.031 125.148 127.022 125.254H127.415V122.702H127.022C127.022 123.095 127.022 123.291 126.826 123.291H116.617L117.206 123.684C117.277 123.763 117.331 123.857 117.365 123.958C117.399 124.059 117.411 124.166 117.402 124.273V133.893C117.402 134.089 117.206 134.285 117.206 134.481H116.617V135.463H126.826L127.219 136.052H127.415V133.5H127.219C127.022 133.893 127.022 134.089 126.826 134.089Z" fill="white"/>
<path d="M149.793 134.089H141.744V124.665C141.744 124.273 141.744 124.076 141.94 124.076C142.136 124.076 142.136 123.88 142.529 123.684H139.584L140.173 124.076V134.874H139.584V135.463H149.793V136.052H149.989V133.5H149.793C149.802 133.606 149.789 133.713 149.755 133.814C149.722 133.916 149.667 134.009 149.596 134.089" fill="white"/>
<path d="M164.323 134.089H156.274V129.77H161.575C161.646 129.849 161.7 129.943 161.733 130.044C161.767 130.145 161.78 130.252 161.771 130.359H162.164V128.003H161.771V128.592H156.274V124.665H164.127L164.519 125.254H164.716V122.702H164.519C164.323 123.095 164.323 123.291 164.127 123.291C163.93 123.291 163.734 123.487 163.538 123.487H153.918C154.311 123.684 154.507 123.684 154.507 123.88C154.507 124.076 154.703 124.076 154.703 124.469V134.089C154.712 134.195 154.7 134.302 154.666 134.404C154.632 134.505 154.578 134.598 154.507 134.678H153.918V135.463H164.323V136.052H164.912V133.5H164.519C164.528 133.606 164.516 133.713 164.482 133.815C164.448 133.916 164.394 134.009 164.323 134.089Z" fill="white"/>
<path d="M180.223 133.696L176.296 125.254L175.904 124.273C175.904 123.88 176.1 123.88 176.493 123.684H172.959C173.351 123.88 173.548 123.88 173.548 124.273C173.548 124.665 173.351 124.665 173.155 125.254L169.229 133.696L168.64 134.874H168.051V135.463H170.996V135.07C170.603 135.07 170.407 134.874 170.407 134.678C170.398 134.571 170.41 134.464 170.444 134.363C170.478 134.262 170.532 134.168 170.603 134.089L171.388 132.125H177.671L178.652 134.089V134.678C178.652 134.874 178.652 135.07 178.26 135.07V135.463H181.401V135.07C181.248 135.07 181.098 135.035 180.962 134.967C180.825 134.899 180.707 134.8 180.615 134.678L180.026 133.696M171.781 130.948L174.333 125.058L177.082 130.948H171.781Z" fill="white"/>
<path d="M194.948 123.29C194.948 123.486 194.752 123.486 194.359 123.486H184.347C184.233 123.386 184.163 123.245 184.15 123.094H183.758V125.646H184.15C184.141 125.54 184.154 125.433 184.188 125.331C184.222 125.23 184.276 125.137 184.347 125.057H188.862V135.266H188.273V135.462H191.218V135.069H190.629C190.558 134.99 190.504 134.896 190.47 134.795C190.437 134.694 190.424 134.587 190.433 134.48V124.664H194.359C194.752 124.664 194.948 124.664 194.948 124.861C194.948 125.057 195.145 125.057 195.341 125.45H195.537V122.897H195.341C195.145 123.094 195.145 123.29 194.948 123.29Z" fill="white"/>
<path d="M208.886 123.684L209.475 124.076C209.546 124.156 209.6 124.249 209.634 124.35C209.668 124.452 209.681 124.559 209.672 124.665V128.592H201.622V124.665C201.613 124.559 201.626 124.452 201.66 124.35C201.694 124.249 201.748 124.156 201.819 124.076L202.408 123.684H199.463L200.052 124.076C200.123 124.156 200.177 124.249 200.211 124.35C200.244 124.452 200.257 124.559 200.248 124.665V134.285C200.248 134.481 200.052 134.678 200.052 134.874H199.463V135.463H202.408V135.07H201.819C201.819 134.874 201.622 134.678 201.622 134.481V129.77H209.672V134.285C209.672 134.481 209.475 134.678 209.475 134.874H208.886V135.463H211.831V135.07H211.242C211.242 134.874 211.046 134.678 211.046 134.481V124.665C211.037 124.559 211.05 124.452 211.083 124.35C211.117 124.249 211.171 124.156 211.242 124.076L211.831 123.684H208.886Z" fill="white"/>
<path d="M226.752 134.089C226.752 134.285 226.555 134.285 226.163 134.285H218.703V129.77H223.414C223.807 129.77 224.003 129.77 224.003 129.966C224.003 130.162 224.2 130.162 224.396 130.555H224.592V128.003H224.396L224.003 128.592H218.703V124.665H226.752C226.752 124.862 226.948 125.058 226.948 125.254H227.341V122.702H226.948C226.957 122.809 226.944 122.916 226.911 123.017C226.877 123.118 226.823 123.211 226.752 123.291H216.543L217.132 123.684C217.203 123.763 217.257 123.857 217.291 123.958C217.325 124.059 217.337 124.166 217.328 124.273V133.893C217.328 134.089 217.132 134.285 217.132 134.481H216.543V135.463H226.752L227.144 136.052H227.341V133.5H227.144C226.948 133.893 226.948 134.089 226.752 134.089Z" fill="white"/>
<path d="M243.046 134.679L240.101 129.967L242.653 128.985C242.922 128.696 243.13 128.356 243.265 127.985C243.4 127.614 243.459 127.22 243.438 126.826C243.47 126.336 243.379 125.846 243.174 125.4C242.968 124.954 242.654 124.567 242.261 124.273C242.088 124.081 241.876 123.928 241.639 123.826C241.401 123.725 241.144 123.676 240.886 123.684H231.855C232.052 123.881 232.248 123.881 232.248 124.077C232.248 124.273 232.444 124.273 232.444 124.666V134.286C232.453 134.392 232.441 134.499 232.407 134.601C232.373 134.702 232.319 134.795 232.248 134.875H231.855V135.464H234.604V135.071H234.211C234.14 134.992 234.086 134.898 234.053 134.797C234.019 134.696 234.006 134.589 234.015 134.482V129.967H238.334L241.083 134.286C241.279 134.679 241.279 134.679 241.279 134.875H240.886V135.464H243.831V135.071H243.438C243.242 134.875 243.046 134.875 243.046 134.679ZM234.015 128.789V124.666H238.727L241.279 125.059C241.762 125.522 242.044 126.156 242.064 126.826C242.088 127.158 242.006 127.489 241.83 127.771C241.653 128.053 241.392 128.272 241.083 128.396L240.297 128.789H234.015Z" fill="white"/>
<path d="M265.821 129.376L264.447 128.984H258.361L257.576 128.395C257.379 128.002 257.183 127.806 257.183 127.413C257.189 127.037 257.304 126.67 257.512 126.357C257.721 126.044 258.016 125.797 258.361 125.646C259.283 125.222 260.292 125.02 261.306 125.057C262.534 124.989 263.756 125.26 264.84 125.843C265.429 126.039 265.625 126.235 265.625 126.432V126.824H265.821L266.999 124.468H266.803C266.606 124.861 266.41 124.861 266.41 124.861H266.018C264.621 124.132 263.077 123.729 261.502 123.683C260.034 123.596 258.58 124.012 257.379 124.861C256.926 125.122 256.544 125.492 256.27 125.938C255.996 126.384 255.837 126.891 255.809 127.413C255.782 127.732 255.82 128.054 255.921 128.357C256.022 128.661 256.185 128.941 256.398 129.18C256.731 129.654 257.216 130 257.772 130.162L259.146 130.554H264.643L265.429 131.143C265.625 131.536 265.821 131.732 265.821 132.125C265.782 132.542 265.648 132.945 265.429 133.303L264.447 134.088C263.525 134.513 262.516 134.714 261.502 134.677C260.138 134.632 258.8 134.298 257.576 133.696L256.594 132.714H256.398L255.023 135.07H255.22C255.416 134.677 255.612 134.677 255.809 134.677H256.005C256.824 135.267 257.762 135.669 258.754 135.855L261.502 136.248C263.031 136.334 264.547 135.92 265.821 135.07C266.251 134.799 266.603 134.422 266.844 133.975C267.085 133.527 267.206 133.025 267.195 132.518C267.156 131.975 267.023 131.444 266.803 130.947C266.582 130.529 266.24 130.187 265.821 129.965" fill="white"/>
<path d="M281.134 124.076L279.957 123.487H271.318L271.907 123.88C272.021 123.981 272.091 124.121 272.104 124.273V134.089C272.104 134.285 271.907 134.481 271.907 134.678H271.318V135.463H274.263V135.07H273.674V129.966H279.957C280.349 129.77 280.938 129.77 281.134 129.377C281.331 128.984 281.92 128.788 282.312 128.395C282.533 127.898 282.666 127.367 282.705 126.825C282.669 126.219 282.537 125.622 282.312 125.058C281.92 124.665 281.723 124.273 281.134 124.076ZM280.349 128.395L279.564 128.788H273.674V124.665H279.564L280.349 125.058C280.621 125.26 280.837 125.528 280.974 125.838C281.112 126.148 281.167 126.488 281.134 126.825C281.134 127.61 280.938 128.199 280.349 128.395Z" fill="white"/>
<path d="M296.84 134.089C296.84 134.285 296.643 134.285 296.251 134.285H288.987V129.77H294.287C294.358 129.849 294.413 129.943 294.446 130.044C294.48 130.145 294.493 130.252 294.484 130.359H294.876V128.003H294.484V128.592H289.183V124.665H297.036L297.429 125.254H297.625V122.702H297.429C297.232 123.095 297.232 123.291 297.036 123.291C296.84 123.291 296.643 123.487 296.447 123.487H286.631C287.024 123.684 287.22 123.684 287.22 123.88C287.22 124.076 287.416 124.076 287.416 124.469V134.089C287.425 134.195 287.412 134.302 287.379 134.404C287.345 134.505 287.291 134.598 287.22 134.678H286.631V135.463H297.036V136.052H297.232V133.5H297.036C297.036 133.893 296.84 134.089 296.643 134.089" fill="white"/>
<path d="M313.331 131.731V132.32L312.742 133.105C311.535 133.962 310.099 134.441 308.619 134.48C307.34 134.51 306.09 134.094 305.085 133.302C304.512 132.825 304.055 132.223 303.748 131.543C303.442 130.862 303.295 130.121 303.319 129.375C303.312 128.679 303.448 127.989 303.718 127.348C303.988 126.706 304.387 126.127 304.889 125.645C306.042 124.85 307.416 124.438 308.816 124.467C310.186 124.463 311.535 124.8 312.742 125.449C313.135 125.645 313.135 125.841 313.135 126.038V126.43H313.331L314.705 124.075H313.724C312.21 123.258 310.533 122.788 308.816 122.7C307.052 122.672 305.327 123.224 303.907 124.271C303.164 124.808 302.562 125.517 302.152 126.338C301.742 127.158 301.536 128.066 301.552 128.983C301.628 130.004 301.894 131.003 302.337 131.927C302.642 132.679 303.197 133.303 303.907 133.694C305.236 134.771 306.91 135.329 308.619 135.265L311.564 134.872C312.496 134.495 313.359 133.964 314.116 133.302H314.313L314.902 133.694H315.098L313.527 131.535L313.331 131.731Z" fill="white"/>
<path d="M319.611 123.684C319.808 123.88 320.004 123.88 320.004 124.076C320.004 124.273 320.2 124.273 320.2 124.665V134.285C320.209 134.391 320.197 134.498 320.163 134.6C320.129 134.701 320.075 134.794 320.004 134.874H319.611V135.463H322.36V135.07H321.967C321.896 134.991 321.842 134.897 321.808 134.796C321.775 134.695 321.762 134.588 321.771 134.481V124.665C321.771 124.273 321.771 124.076 321.967 124.076C322.164 124.076 322.164 123.88 322.36 123.684H319.611Z" fill="white"/>
<path d="M338.067 133.696L334.336 125.254L333.944 124.273C333.944 123.88 334.14 123.88 334.533 123.684H330.999C331.392 123.88 331.588 123.88 331.588 124.273C331.588 124.665 331.392 124.665 331.195 125.254L327.269 133.696C327.158 134.126 326.957 134.527 326.68 134.874H325.895V135.463H328.839V135.07C328.735 135.07 328.635 135.029 328.562 134.955C328.488 134.882 328.447 134.782 328.447 134.678C328.438 134.571 328.45 134.464 328.484 134.363C328.518 134.262 328.572 134.168 328.643 134.089L329.428 132.125H335.711L336.692 134.089V134.678C336.692 134.782 336.651 134.882 336.577 134.955C336.504 135.029 336.404 135.07 336.3 135.07V135.463H339.244V135.07L338.655 134.678L337.87 133.696M329.821 130.948L332.373 125.058L335.122 130.948H329.821Z" fill="white"/>
<path d="M353.183 134.089H345.134V124.665C345.134 124.273 345.134 124.076 345.33 124.076C345.527 124.076 345.527 123.88 345.919 123.684H342.975L343.564 124.076V134.874H342.975V135.463H353.183V136.052H353.38V133.5C353.389 133.606 353.376 133.713 353.342 133.814C353.308 133.916 353.254 134.009 353.183 134.089Z" fill="white"/>
<path d="M357.307 123.684C357.699 123.88 357.896 123.88 357.896 124.076C357.896 124.273 358.092 124.273 358.092 124.665V134.285C358.101 134.391 358.088 134.498 358.054 134.6C358.021 134.701 357.967 134.794 357.896 134.874H357.307V135.463H360.251V135.07H359.663V124.076L360.251 123.684H357.307Z" fill="white"/>
<path d="M375.171 129.377L373.797 128.984H367.711L366.925 128.395C366.767 128.094 366.698 127.753 366.729 127.413C366.735 127.037 366.85 126.67 367.058 126.357C367.267 126.044 367.562 125.797 367.907 125.647C368.829 125.222 369.837 125.021 370.852 125.058C372.079 124.989 373.302 125.261 374.385 125.843C374.778 126.105 374.974 126.301 374.974 126.432V126.824H375.171L376.349 124.469H376.152L375.76 124.861H375.367C373.981 124.104 372.431 123.699 370.852 123.683C369.39 123.652 367.953 124.063 366.729 124.861C366.275 125.122 365.894 125.492 365.62 125.938C365.345 126.384 365.187 126.891 365.158 127.413C365.131 127.733 365.17 128.054 365.271 128.358C365.372 128.661 365.534 128.941 365.747 129.18C366.119 129.614 366.591 129.951 367.122 130.162L368.496 130.555H374.189L374.778 131.144C374.974 131.536 375.171 131.733 375.171 132.125C375.131 132.543 374.997 132.946 374.778 133.303L373.797 134.088C372.875 134.513 371.866 134.714 370.852 134.677C369.53 134.597 368.249 134.193 367.122 133.499C366.336 133.107 365.944 132.714 365.944 132.518C365.996 132.518 366.046 132.497 366.082 132.46C366.119 132.423 366.14 132.374 366.14 132.321H365.747L364.373 134.677H364.766C364.962 134.285 365.158 134.285 365.158 134.285H365.355C366.191 134.842 367.123 135.241 368.103 135.463L370.852 135.855C372.384 135.972 373.91 135.555 375.171 134.677C375.6 134.407 375.953 134.029 376.194 133.582C376.434 133.135 376.556 132.633 376.545 132.125C376.577 131.594 376.51 131.062 376.349 130.555C375.956 130.162 375.76 129.769 375.171 129.573" fill="white"/>
<path d="M391.467 122.897C391.467 123.094 391.467 123.29 391.27 123.29H380.669C380.473 123.29 380.473 123.094 380.473 122.897H380.08V125.45H380.473C380.473 125.057 380.473 124.861 380.669 124.861H385.184V134.48C385.193 134.587 385.181 134.694 385.147 134.795C385.113 134.896 385.059 134.99 384.988 135.069H384.595V135.462H387.344V135.069H386.951C386.88 134.99 386.826 134.896 386.793 134.795C386.759 134.694 386.746 134.587 386.755 134.48V124.664H391.27C391.467 124.664 391.467 124.861 391.467 125.253H391.859V122.897H391.467Z" fill="white"/>
</svg>
